# xmcd CD database file
#
# Track frame offsets:
#	150
#	17358
#	36342
#	71167
#	92920
#	112090
#	115765
#	139879
#	161180
#	174851
#
# Disc length: 2716 seconds
#
# Revision: 0
# Processed by: cddbd v1.5.2PL0 Copyright (c) Steve Scherf et al.
# Submitted via: CDex 1.50
#
DISCID=870a9a0a
DTITLE=Nathan Riki Thomson - Under Ubi`s Tree
DYEAR=2008
DGENRE=Jazz
TTITLE0=01-Shikamoo Zawose
TTITLE1=02-Bus to Bagamoyo
TTITLE2=03-Waiting for Rain
TTITLE3=04-For Johanna
TTITLE4=05-Illalla
TTITLE5=06-Interlude
TTITLE6=07-Cheza
TTITLE7=08-Under Ubis Tree
TTITLE8=09-Hello Porcupine
TTITLE9=10-Song for Otso
EXTD=YEAR: 2008
EXTT0=
EXTT1=
EXTT2=
EXTT3=
EXTT4=
EXTT5=
EXTT6=
EXTT7=
EXTT8=
EXTT9=
PLAYORDER=
